<?xml version="1.0" encoding="UTF-8"?>
<!DOCTYPE svg PUBLIC "-//W3C//DTD SVG 1.1//EN" "http://www.w3.org/Graphics/SVG/1.1/DTD/svg11.dtd">
<!-- Creator: CorelDRAW X6 -->
<svg xmlns="http://www.w3.org/2000/svg" xml:space="preserve" width="25.3701mm" height="31.9913mm" version="1.1" style="shape-rendering:geometricPrecision; text-rendering:geometricPrecision; image-rendering:optimizeQuality; fill-rule:evenodd; clip-rule:evenodd"
viewBox="0 0 335 423"
 xmlns:xlink="http://www.w3.org/1999/xlink">
 <defs>
  <style type="text/css">
   <![CDATA[
    .fil0 {fill:#221F1F}
    .fil2 {fill:#26B9CD}
    .fil1 {fill:#FCFCFC}
   ]]>
  </style>
 </defs>
 <g id="图层_x0020_1">
  <metadata id="CorelCorpID_0Corel-Layer"/>
  <g id="_654504096">
   <g id="LOGO.cdr">
    <path class="fil0" d="M88 16l0 3c0,11 8,12 14,16l6 48c-2,0 -2,1 -4,1l-3 0c-39,0 -50,-26 -73,-41 -5,4 -18,47 -20,57 -4,21 -9,45 -9,69l0 23c0,62 14,127 39,165 14,20 32,35 55,46 19,9 54,20 82,20l3 0c38,0 81,-15 104,-30 23,-14 52,-47 52,-82l0 -16c0,-34 -12,-56 -30,-73 -20,-20 -34,-28 -50,-53 -11,-17 -20,-54 -27,-76 -9,-28 -18,-49 -33,-71 -4,3 -25,34 -29,40 -8,12 -29,21 -48,21l-6 -49c5,-3 10,-7 10,-15l0 -3c0,-7 -9,-15 -16,-15 -9,0 -16,7 -16,16z"/>
    <path class="fil1" d="M133 147l0 3c0,22 19,42 41,42l4 0c22,0 40,-21 40,-44 0,-19 -19,-40 -38,-40l-10 0c-18,0 -36,21 -36,40z"/>
    <path class="fil1" d="M25 171l0 8c0,19 19,38 39,38l6 0c19,0 39,-19 39,-37l0 -10c0,-19 -21,-37 -41,-37l-3 0c-19,0 -40,19 -40,38z"/>
    <path class="fil0" d="M180 141c0,4 3,8 8,8l2 0c4,0 7,-3 7,-7l0 -2c0,-4 -4,-8 -8,-8 -4,0 -9,4 -9,9z"/>
    <path class="fil0" d="M68 166l0 2c0,4 4,8 8,8 3,0 8,-3 8,-6l0 -3c0,-4 -3,-7 -7,-7l-3 0c-3,0 -6,3 -6,7z"/>
    <path class="fil2" d="M97 15l0 3c0,4 4,8 7,8 4,0 9,-3 9,-8l0 -1c0,-5 -4,-8 -9,-8 -3,0 -7,4 -7,6z"/>
   </g>
  </g>
 </g>
</svg>
